<svg width="53" height="48" viewBox="0 0 53 48" fill="none" xmlns="http://www.w3.org/2000/svg">
<g clip-path="url(#clip0_1_381)">
<path d="M26.0909 0L10.1602 29.308H12.6339L26.0909 4.55352L48.5266 45.8228H47.084L26.0732 7.23961L14.0765 29.308H16.5502L26.0732 11.7887L44.6059 45.8228H42.7075L26.0732 15.2846L18.4442 29.308H20.9223L26.0732 19.8293L31.6622 30.0913L32.4233 31.4852L33.6049 33.658H33.6093L34.0518 34.4766L35.2333 36.6494L35.6803 37.4636L36.8618 39.6364L37.0078 39.9063L41.4153 48H52.1774L26.0909 0Z" fill="white"/>
<path d="M9.4699 45.8272H7.57592L9.3814 42.5083H6.90329L5.09782 45.8272H3.65078L5.45625 42.5083H2.98258L0 48H10.7621L13.7535 42.5083H11.2709L9.4699 45.8272Z" fill="white"/>
<path d="M30.2506 30.9852H9.24863L8.07153 33.1491H31.4277L30.2506 30.9852Z" fill="white"/>
<path d="M32.357 34.8528H7.14667L5.96957 37.0167H33.5341L32.357 34.8528Z" fill="white"/>
<path d="M5.06684 38.6761L3.89417 40.8356H35.6095L34.4368 38.6761H5.06684Z" fill="white"/>
</g>
<defs>
<clipPath id="clip0_1_381">
<rect width="52.1774" height="48" fill="white"/>
</clipPath>
</defs>
</svg>
